<svg xmlns="http://www.w3.org/2000/svg" viewBox="0 0 120 140" fill="none">
  <circle cx="42" cy="24" r="10" fill="#FFFFFF" stroke="#2B2B2B" stroke-width="4"/>
  <circle cx="78" cy="24" r="10" fill="#FFFFFF" stroke="#2B2B2B" stroke-width="4"/>
  <ellipse cx="46" cy="130" rx="12" ry="7" fill="#FFFFFF" stroke="#2B2B2B" stroke-width="4"/>
  <ellipse cx="74" cy="130" rx="12" ry="7" fill="#FFFFFF" stroke="#2B2B2B" stroke-width="4"/>
  <ellipse cx="18" cy="76" rx="8" ry="14" fill="#FFFFFF" stroke="#2B2B2B" stroke-width="4" transform="rotate(-8 18 76)"/>
  <ellipse cx="102" cy="76" rx="8" ry="14" fill="#FFFFFF" stroke="#2B2B2B" stroke-width="4" transform="rotate(8 102 76)"/>
  <path d="M60,18 C40,18 26,34 26,58 C26,80 32,96 40,108 C46,116 52,122 60,122 C68,122 74,116 80,108 C88,96 94,80 94,58 C94,34 80,18 60,18 Z" fill="#FFFFFF" stroke="#2B2B2B" stroke-width="4.5"/>
  <path d="M72,28 C84,42 86,74 74,102 C80,88 84,72 84,56 C84,42 80,32 72,24 Z" fill="#ECECEC"/>
  <path d="M42,66 Q48,60 54,66" stroke="#2B2B2B" stroke-width="3.5" stroke-linecap="round" fill="none"/>
  <circle cx="70" cy="66" r="3.4" fill="#2B2B2B"/>
  <path d="M48,84 Q60,94 76,82" stroke="#2B2B2B" stroke-width="3.5" stroke-linecap="round" fill="none"/>
  <path d="M90,60 L100,56" stroke="#E7847A" stroke-width="4" stroke-linecap="round"/>
</svg>
